<?xml version="1.0" encoding="iso-8859-1"?>
<!-- Generator: Adobe Illustrator 19.0.0, SVG Export Plug-In . SVG Version: 6.00 Build 0)  -->
<svg version="1.1" id="Layer_1" xmlns="http://www.w3.org/2000/svg" xmlns:xlink="http://www.w3.org/1999/xlink" x="0px" y="0px"
	 viewBox="0 0 510.064 510.064" style="enable-background:new 0 0 510.064 510.064;" xml:space="preserve">
<g>
	<path style="fill:#C0694E;" d="M345.467,463.583l3.54,14.8c0,2.47-1.42,4.85-4.07,7.1c-11.66,9.88-47.08,17.08-88.95,17.08
		c-51.38,0-93.03-10.83-93.03-24.18l3.54-14.8c61.53-264.99-3.54-432.11-3.54-432.11h186.05
		C349.008,31.473,283.937,198.593,345.467,463.583z"/>
	<path style="fill:#C97E67;" d="M345.467,463.583l3.54,14.8c0,2.47-1.42,4.85-4.07,7.1c-15.78,3.2-35.64,5.1-57.21,5.1
		c-51.37,0-93.02-10.82-93.02-24.18l3.54-14.8c51.92-223.6,13.7-377.51,0.49-420.13h150.27
		C349.008,31.473,283.937,198.593,345.467,463.583z"/>
	<path style="fill:#7C3F2C;" d="M349.008,31.473c0,10.89-27.69,20.1-65.77,23.12c-8.62,0.69-17.77,1.06-27.25,1.06
		c-51.38,0-93.03-10.82-93.03-24.18c0-13.35,41.65-24.18,93.03-24.18c9.48,0,18.63,0.37,27.25,1.06
		C321.317,11.373,349.008,20.583,349.008,31.473z"/>
	<path style="fill:#954C35;" d="M349.008,31.473c0,10.89-27.69,20.1-65.77,23.12c-38.08-3.02-65.78-12.23-65.78-23.12
		s27.7-20.1,65.78-23.12C321.317,11.373,349.008,20.583,349.008,31.473z"/>
	<g>
		<path d="M335.873,417.929c-4.066,0.79-6.723,4.726-5.933,8.792c5.697,29.337,10.244,46.771,11.392,51.795
			c-1.243,1.795-7.327,6.377-24.296,10.414c-34.363,8.174-87.686,8.187-122.102,0c-16.969-4.037-23.053-8.618-24.297-10.414
			c0.79-3.704,12.882-50.099,21.035-110.235c0.556-4.105-2.32-7.883-6.424-8.44c-4.112-0.558-7.883,2.32-8.44,6.424
			c-9.054,66.781-21.351,108.78-21.351,112.117c0,25.009,63.19,31.682,100.528,31.682c37.337,0,100.528-6.673,100.528-31.682
			c0-3.257-3.921-13.705-11.848-54.521C343.875,419.795,339.942,417.139,335.873,417.929z"/>
		<path d="M329.649,240.357l-3.134,1.167c-0.054-85.406,13.082-158.51,27.717-202.288c1.868-3.001,2.481-6.382,2.231-8.596
			c-0.509-8.885-9.107-16.099-25.628-21.441c-3.94-1.275-8.169,0.888-9.443,4.829c-1.274,3.941,0.887,8.169,4.828,9.444
			c10.472,3.386,13.89,6.432,14.917,7.671c-0.128,0.355-0.265,0.741-0.417,1.171c-2.135,2.112-8.617,6.125-23.685,9.709
			c-16.629,3.956-38.312,6.135-61.051,6.135s-44.421-2.179-61.051-6.134c-15.072-3.586-21.553-7.599-23.686-9.71
			c-0.156-0.445-0.299-0.844-0.43-1.208c9.246-11.285,70.62-21.376,127.383-13.615c4.099,0.557,7.886-2.311,8.446-6.416
			c0.562-4.104-2.311-7.886-6.415-8.446c-49.921-6.825-147.045-1.473-144.753,29.405c0.098,2.566,30.177,77.13,29.969,210.199
			c-3.412-1.086-7.725-3.606-14.569-3.606c-15.014,0-27.229,12.233-27.229,27.27v21.352c0,19.147,19.379,32.536,37.418,25.286
			l1.563-0.628c-0.647,8.256-1.401,16.528-2.268,24.802c-0.465,4.428,3.007,8.282,7.468,8.282c3.791,0,7.046-2.865,7.45-6.719
			c1.14-10.879,2.076-21.752,2.841-32.593l45.015-18.097c-6.999,17.563-19.564,41.104-35.076,45.12
			c-4.01,1.038-6.419,5.13-5.381,9.141c1.039,4.014,5.133,6.418,9.141,5.381c20.71-5.362,34.795-29.618,43.212-49.252
			c8.433,19.671,22.519,43.895,43.212,49.252c4.009,1.036,8.102-1.369,9.141-5.381c1.038-4.01-1.371-8.103-5.381-9.141
			c-15.512-4.016-28.077-27.557-35.076-45.12l46.969,18.883c2.14,29.892,5.712,60.156,10.708,90.518
			c0.674,4.097,4.541,6.854,8.618,6.183c4.087-0.672,6.855-4.531,6.183-8.618c-4.516-27.443-7.845-54.796-9.993-81.856
			c17.932,6.88,37.002-6.434,37.002-25.442v-21.352C366.415,247.055,347.599,233.67,329.649,240.357z M183.77,295.28l-8.296,3.335
			c-7.968,3.201-16.824-2.598-16.824-11.368v-21.352c0-8.478,8.429-14.499,16.529-11.482l10.087,3.757
			C185.023,270.445,184.524,282.829,183.77,295.28z M199.163,289.092c0.45-8.497,0.777-16.959,0.992-25.375l32.249,12.011
			L199.163,289.092z M255.502,267.974c-0.528-0.016-0.72-0.009-0.945-0.002l-54.148-20.167c0.031-3.951,0.104-8.109-0.031-18.451
			c43.536-6.104,92.148-25.236,112.311-33.763c-0.936,17.859-1.262,34.565-1.144,51.51L255.502,267.974z M277.659,275.728
			l34.139-12.715c0.221,8.911,0.567,17.867,1.053,26.863L277.659,275.728z M313.741,178.789
			c-11.513,5.063-66.385,28.43-113.692,35.456c-0.954-31.421-3.517-59.221-6.773-83.112c34.632,22.8,77.593,36.782,121.5,34.877
			C314.404,170.183,314.058,174.442,313.741,178.789z M316.272,150.898c-46.934,2.634-95.019-15.783-126.141-40.527
			c-4.132-24.716-8.804-44.149-12.617-57.847c38.107,14.045,118.451,14.186,156.94,0
			C328.754,73.001,321.133,106.283,316.272,150.898z M351.415,287.248c0,8.752-8.846,14.574-16.823,11.369l-6.355-2.555
			c-0.797-12.951-1.316-25.821-1.557-38.591c7.213-2.508,9.016-3.844,12.507-3.844c6.743,0,12.229,5.504,12.229,12.27V287.248z"/>
	</g>
</g>
<g>
</g>
<g>
</g>
<g>
</g>
<g>
</g>
<g>
</g>
<g>
</g>
<g>
</g>
<g>
</g>
<g>
</g>
<g>
</g>
<g>
</g>
<g>
</g>
<g>
</g>
<g>
</g>
<g>
</g>
</svg>
