<?xml version="1.0" encoding="iso-8859-1"?>
<!-- Generator: Adobe Illustrator 19.0.0, SVG Export Plug-In . SVG Version: 6.00 Build 0)  -->
<svg version="1.1" id="Layer_1" xmlns="http://www.w3.org/2000/svg" xmlns:xlink="http://www.w3.org/1999/xlink" x="0px" y="0px"
	 viewBox="0 0 508.74 508.74" style="enable-background:new 0 0 508.74 508.74;" xml:space="preserve">
<g>
	<path d="M440.412,173.831c4.143,0,7.5-3.357,7.5-7.5V24.5c0-13.51-10.99-24.5-24.5-24.5s-24.5,10.99-24.5,24.5v38.85h-9.022V50.41
		c0-10.75-8.75-19.5-19.5-19.5h-3c-10.75,0-19.5,8.75-19.5,19.5v12.94h-7.41V50.41c0-10.75-8.75-19.5-19.5-19.5h-3
		c-10.75,0-19.5,8.75-19.5,19.5v12.94h-68.02V50.41c0-10.75-8.75-19.5-19.5-19.5h-3c-10.75,0-19.5,8.75-19.5,19.5v12.94h-7.4V50.41
		c0-10.75-8.75-19.5-19.5-19.5h-3c-10.76,0-19.5,8.75-19.5,19.5v12.94h-29.232V24.5c0-13.51-10.991-24.5-24.5-24.5
		s-24.5,10.99-24.5,24.5v362.909c0,4.143,3.358,7.5,7.5,7.5s7.5-3.357,7.5-7.5V24.5c0-5.238,4.262-9.5,9.5-9.5s9.5,4.262,9.5,9.5
		v459.74c0,5.238-4.262,9.5-9.5,9.5s-9.5-4.262-9.5-9.5v-66.831c0-4.143-3.358-7.5-7.5-7.5s-7.5,3.357-7.5,7.5v66.831
		c0,13.51,10.991,24.5,24.5,24.5s24.5-10.99,24.5-24.5v-38.85h10.521v12.94c0,10.75,8.75,19.5,19.5,19.5h3
		c10.75,0,19.5-8.75,19.5-19.5v-12.94h7.41v12.94c0,10.75,8.75,19.5,19.5,19.5h3c10.75,0,19.5-8.75,19.5-19.5v-12.94h27.61v12.94
		c0,10.75,8.75,19.5,19.5,19.5h3c10.75,0,19.5-8.75,19.5-19.5v-12.94h66.52v12.94c0,10.75,8.75,19.5,19.5,19.5h3
		c10.75,0,19.5-8.75,19.5-19.5v-12.94h9.022v38.85c0,13.51,10.99,24.5,24.5,24.5s24.5-10.99,24.5-24.5V196.331
		c0-4.143-3.357-7.5-7.5-7.5s-7.5,3.357-7.5,7.5V484.24c0,5.238-4.262,9.5-9.5,9.5s-9.5-4.262-9.5-9.5V24.5
		c0-5.238,4.262-9.5,9.5-9.5s9.5,4.262,9.5,9.5v141.831C432.912,170.474,436.269,173.831,440.412,173.831z M362.89,50.41
		c0-2.44,2.06-4.5,4.5-4.5h3c2.44,0,4.5,2.06,4.5,4.5c0,14.083,0,26.716,0,40.89c0,2.44-2.06,4.5-4.5,4.5h-3
		c-2.44,0-4.5-2.06-4.5-4.5C362.89,75.673,362.89,63.883,362.89,50.41z M313.48,50.41c0-2.44,2.06-4.5,4.5-4.5h3
		c2.44,0,4.5,2.06,4.5,4.5c0,13.463,0,25.301,0,40.89c0,2.44-2.06,4.5-4.5,4.5h-3c-2.44,0-4.5-2.06-4.5-4.5
		C313.48,75.673,313.48,63.883,313.48,50.41z M203.46,50.41c0-2.44,2.06-4.5,4.5-4.5h3c2.44,0,4.5,2.06,4.5,4.5
		c0,14.083,0,26.716,0,40.89c0,2.44-2.06,4.5-4.5,4.5h-3c-2.44,0-4.5-2.06-4.5-4.5C203.46,77.218,203.46,64.584,203.46,50.41z
		 M154.06,50.41c0-2.44,2.06-4.5,4.5-4.5h3c2.43,0,4.5,2.06,4.5,4.5c0,14.083,0,26.716,0,40.89c0,2.44-2.07,4.5-4.5,4.5h-3
		c-2.44,0-4.5-2.06-4.5-4.5C154.06,75.673,154.06,63.883,154.06,50.41z M147.35,458.33c0,2.44-2.06,4.5-4.5,4.5h-3
		c-2.44,0-4.5-2.06-4.5-4.5c0-13.463,0-25.301,0-40.89c0-2.44,2.06-4.5,4.5-4.5h3c2.44,0,4.5,2.06,4.5,4.5
		C147.35,431.522,147.35,444.156,147.35,458.33z M196.76,458.33c0,2.44-2.06,4.5-4.5,4.5h-3c-2.44,0-4.5-2.06-4.5-4.5
		c0-15.632,0-27.386,0-40.89c0-2.44,2.06-4.5,4.5-4.5h3c2.44,0,4.5,2.06,4.5,4.5C196.76,431.522,196.76,444.156,196.76,458.33z
		 M266.37,458.33c0,2.44-2.06,4.5-4.5,4.5h-3c-2.44,0-4.5-2.06-4.5-4.5c0-13.463,0-25.301,0-40.89c0-2.44,2.06-4.5,4.5-4.5h3
		c2.44,0,4.5,2.06,4.5,4.5C266.37,433.067,266.37,444.858,266.37,458.33z M374.89,458.33c0,2.44-2.06,4.5-4.5,4.5h-3
		c-2.44,0-4.5-2.06-4.5-4.5c0-13.463,0-25.301,0-40.89c0-2.44,2.06-4.5,4.5-4.5h3c2.44,0,4.5,2.06,4.5,4.5
		C374.89,433.067,374.89,444.858,374.89,458.33z M398.912,430.39h-9.022v-12.95c0-10.75-8.75-19.5-19.5-19.5h-3
		c-10.75,0-19.5,8.75-19.5,19.5v12.95h-66.52v-12.95c0-10.75-8.75-19.5-19.5-19.5h-3c-10.75,0-19.5,8.75-19.5,19.5v12.95h-27.61
		v-12.95c0-10.75-8.75-19.5-19.5-19.5h-3c-10.75,0-19.5,8.75-19.5,19.5v12.95h-7.41v-12.95c0-10.75-8.75-19.5-19.5-19.5h-3
		c-10.75,0-19.5,8.75-19.5,19.5v12.95h-10.521v-76.76h51.632v12.94c0,10.76,8.75,19.5,19.5,19.5h3c10.76,0,19.5-8.74,19.5-19.5
		v-12.94h7.41v12.94c0,10.76,8.75,19.5,19.5,19.5h3c10.75,0,19.5-8.74,19.5-19.5v-12.94h7.41v12.94c0,10.76,8.75,19.5,19.5,19.5h3
		c10.75,0,19.5-8.74,19.5-19.5v-12.94h47.01v12.94c0,10.76,8.74,19.5,19.5,19.5h2.99c10.76,0,19.5-8.74,19.5-19.5v-12.94h7.632
		V430.39z M176.46,366.57c0-13.463,0-25.301,0-40.89c0-2.44,2.07-4.5,4.5-4.5h3c2.44,0,4.5,2.06,4.5,4.5c0,15.627,0,27.417,0,40.89
		c0,2.44-2.06,4.5-4.5,4.5h-3C178.53,371.07,176.46,369.01,176.46,366.57z M225.87,366.57c0-15.632,0-27.386,0-40.89
		c0-2.44,2.06-4.5,4.5-4.5h3c2.44,0,4.5,2.06,4.5,4.5v12.95c0,6.836,0,20.742,0,27.94c0,2.44-2.06,4.5-4.5,4.5h-3
		C227.93,371.07,225.87,369.01,225.87,366.57z M275.28,366.57c0-13.463,0-25.301,0-40.89c0-2.44,2.06-4.5,4.5-4.5h3
		c2.44,0,4.5,2.06,4.5,4.5v12.95c0,6.836,0,20.742,0,27.94c0,2.44-2.06,4.5-4.5,4.5h-3C277.34,371.07,275.28,369.01,275.28,366.57z
		 M364.29,366.57c0-13.463,0-25.301,0-40.89c0-2.44,2.06-4.5,4.5-4.5h2.99c2.44,0,4.5,2.06,4.5,4.5c0,15.627,0,27.417,0,40.89
		c0,2.44-2.06,4.5-4.5,4.5h-2.99C366.35,371.07,364.29,369.01,364.29,366.57z M398.912,338.63h-7.632v-12.95
		c0-10.75-8.74-19.5-19.5-19.5h-2.99c-10.76,0-19.5,8.75-19.5,19.5v12.95h-47.01v-12.95c0-10.75-8.75-19.5-19.5-19.5h-3
		c-10.75,0-19.5,8.75-19.5,19.5v12.95h-7.41v-12.95c0-10.75-8.75-19.5-19.5-19.5h-3c-10.75,0-19.5,8.75-19.5,19.5v12.95h-7.41
		v-12.95c0-10.75-8.74-19.5-19.5-19.5h-3c-10.75,0-19.5,8.75-19.5,19.5v12.95h-51.632v-76.76h26.932v12.95
		c0,10.75,8.75,19.5,19.5,19.5h3c10.75,0,19.5-8.75,19.5-19.5v-12.95h7.41v12.95c0,10.75,8.75,19.5,19.5,19.5h3
		c10.75,0,19.5-8.75,19.5-19.5v-12.95h7.4v12.95c0,10.75,8.75,19.5,19.5,19.5h3c10.76,0,19.5-8.75,19.5-19.5v-12.95h7.41v12.95
		c0,10.75,8.75,19.5,19.5,19.5h3c10.75,0,19.5-8.75,19.5-19.5v-12.95h71.932V338.63z M151.76,274.82c0-13.483,0-25.283,0-40.9
		c0-2.44,2.06-4.5,4.5-4.5h3c2.44,0,4.5,2.06,4.5,4.5c0,15.632,0,27.412,0,40.9c0,2.44-2.06,4.5-4.5,4.5h-3
		C153.82,279.32,151.76,277.26,151.76,274.82z M201.17,274.82c0-15.632,0-27.412,0-40.9c0-2.44,2.06-4.5,4.5-4.5h3
		c2.44,0,4.5,2.06,4.5,4.5c0,13.483,0,25.283,0,40.9c0,2.44-2.06,4.5-4.5,4.5h-3C203.23,279.32,201.17,277.26,201.17,274.82z
		 M250.57,274.82c0-14.092,0-26.737,0-40.9c0-2.44,2.07-4.5,4.5-4.5h3c2.44,0,4.5,2.06,4.5,4.5c0,14.092,0,26.737,0,40.9
		c0,2.44-2.06,4.5-4.5,4.5h-3C252.64,279.32,250.57,277.26,250.57,274.82z M299.98,274.82c0-14.092,0-26.737,0-40.9
		c0-2.44,2.06-4.5,4.5-4.5h3c2.44,0,4.5,2.06,4.5,4.5c0,13.483,0,25.283,0,40.9c0,2.44-2.06,4.5-4.5,4.5h-3
		C302.04,279.32,299.98,277.26,299.98,274.82z M398.912,155.11h-7.632v-12.94c0-10.76-8.74-19.5-19.5-19.5h-2.99
		c-10.76,0-19.5,8.74-19.5,19.5v14.9c-3.278,2.974-3.283,8.101,0,11.08v14.91c0,10.75,8.74,19.5,19.5,19.5h2.99
		c10.76,0,19.5-8.75,19.5-19.5v-12.95h7.632v76.76H326.98v-12.95c0-10.75-8.75-19.5-19.5-19.5h-3c-10.75,0-19.5,8.75-19.5,19.5
		v12.95h-7.41v-12.95c0-10.75-8.74-19.5-19.5-19.5h-3c-10.75,0-19.5,8.75-19.5,19.5v12.95h-7.4v-12.95c0-10.75-8.75-19.5-19.5-19.5
		h-3c-10.75,0-19.5,8.75-19.5,19.5v12.95h-7.41v-12.95c0-10.75-8.75-19.5-19.5-19.5h-3c-10.75,0-19.5,8.75-19.5,19.5v12.95h-26.932
		v-76.76h7.632v12.95c0,10.75,8.74,19.5,19.5,19.5h2.99c10.76,0,19.5-8.75,19.5-19.5v-12.95h38.88c4.14,0,7.5-3.36,7.5-7.5
		s-3.36-7.5-7.5-7.5h-38.88v-12.94c0-10.76-8.74-19.5-19.5-19.5h-2.99c-10.76,0-19.5,8.74-19.5,19.5v12.94h-7.632V78.35h29.232V91.3
		c0,10.75,8.74,19.5,19.5,19.5h3c10.75,0,19.5-8.75,19.5-19.5V78.35h7.4V91.3c0,10.75,8.75,19.5,19.5,19.5h3
		c10.75,0,19.5-8.75,19.5-19.5V78.35h68.02V91.3c0,10.75,8.75,19.5,19.5,19.5h3c10.75,0,19.5-8.75,19.5-19.5V78.35h7.41V91.3
		c0,10.75,8.75,19.5,19.5,19.5h3c10.75,0,19.5-8.75,19.5-19.5V78.35h9.022V155.11z M376.28,142.17c0,13.463,0,25.301,0,40.89
		c0,2.44-2.06,4.5-4.5,4.5h-2.99c-2.44,0-4.5-2.06-4.5-4.5c0-15.627,0-27.417,0-40.89c0-2.44,2.06-4.5,4.5-4.5h2.99
		C374.22,137.67,376.28,139.73,376.28,142.17z M132.46,183.06c0-15.627,0-27.417,0-40.89c0-2.44,2.06-4.5,4.5-4.5h2.99
		c2.44,0,4.5,2.06,4.5,4.5c0,14.083,0,26.716,0,40.89c0,2.44-2.06,4.5-4.5,4.5h-2.99C134.52,187.56,132.46,185.5,132.46,183.06z"/>
	<path d="M322.38,122.67h-3c-10.75,0-19.5,8.74-19.5,19.5v12.94h-7.41v-12.94c0-10.76-8.75-19.5-19.5-19.5h-3
		c-10.75,0-19.5,8.74-19.5,19.5v12.94h-22.14c-4.14,0-7.5,3.36-7.5,7.5s3.36,7.5,7.5,7.5h22.14v12.95c0,10.75,8.75,19.5,19.5,19.5h3
		c10.75,0,19.5-8.75,19.5-19.5v-12.95h7.41v12.95c0,10.75,8.75,19.5,19.5,19.5h3c10.75,0,19.5-8.75,19.5-19.5v-40.89
		C341.88,131.41,333.13,122.67,322.38,122.67z M277.47,183.06c0,2.44-2.06,4.5-4.5,4.5h-3c-2.44,0-4.5-2.06-4.5-4.5
		c0-15.627,0-27.417,0-40.89c0-2.44,2.06-4.5,4.5-4.5h3c2.44,0,4.5,2.06,4.5,4.5C277.47,155.634,277.47,167.471,277.47,183.06z
		 M326.88,183.06c0,2.44-2.06,4.5-4.5,4.5h-3c-2.44,0-4.5-2.06-4.5-4.5c0-15.627,0-27.417,0-40.89c0-2.44,2.06-4.5,4.5-4.5h3
		c2.44,0,4.5,2.06,4.5,4.5C326.88,157.118,326.88,169,326.88,183.06z"/>
</g>
<g>
</g>
<g>
</g>
<g>
</g>
<g>
</g>
<g>
</g>
<g>
</g>
<g>
</g>
<g>
</g>
<g>
</g>
<g>
</g>
<g>
</g>
<g>
</g>
<g>
</g>
<g>
</g>
<g>
</g>
</svg>
